<svg xmlns="http://www.w3.org/2000/svg" version="1.1" xmlns:xlink="http://www.w3.org/1999/xlink" xmlns:svgjs="http://svgjs.com/svgjs" width="1920" height="1080" preserveAspectRatio="none" viewBox="0 0 1920 1080"><g mask="url(&quot;#SvgjsMask1244&quot;)" fill="none"><rect width="1920" height="1080" x="0" y="0" fill="url(#SvgjsRadialGradient1245)"></rect><path d="M1920 0L1041.4 0L1920 276.16z" fill="rgba(255, 255, 255, .1)"></path><path d="M1041.4 0L1920 276.16L1920 676.4300000000001L912.3900000000001 0z" fill="rgba(255, 255, 255, .075)"></path><path d="M912.39 0L1920 676.4300000000001L1920 686.9300000000001L622.92 0z" fill="rgba(255, 255, 255, .05)"></path><path d="M622.9200000000001 0L1920 686.9300000000001L1920 936.3800000000001L501.33000000000004 0z" fill="rgba(255, 255, 255, .025)"></path><path d="M0 1080L316.42 1080L0 572.27z" fill="rgba(0, 0, 0, .1)"></path><path d="M0 572.27L316.42 1080L452.68 1080L0 332.42999999999995z" fill="rgba(0, 0, 0, .075)"></path><path d="M0 332.42999999999995L452.68 1080L1350.25 1080L0 315.03999999999996z" fill="rgba(0, 0, 0, .05)"></path><path d="M0 315.03999999999996L1350.25 1080L1407.42 1080L0 237.72999999999996z" fill="rgba(0, 0, 0, .025)"></path></g><defs><mask id="SvgjsMask1244"><rect width="1920" height="1080" fill="#ffffff"></rect></mask><radialGradient cx="50%" cy="50%" r="1101.45" gradientUnits="userSpaceOnUse" id="SvgjsRadialGradient1245"><stop stop-color="#0e2a47" offset="0"></stop><stop stop-color="rgba(158, 0, 144, 1)" offset="1"></stop></radialGradient></defs></svg>